/* XPM */
static char *result[] = {
/* columns rows colors chars-per-pixel */
"64 64 9 1 ",
"  c #020000",
". c #201506",
"X c #3F2A18",
"o c #543923",
"O c #78531C",
"+ c #64432C",
"@ c #744D34",
"# c #9F722A",
"$ c #C79039",
/* pixels */
"o+++++++++++++@@@@@@@@@@@@@@@@@@@@@@@@@@@@++++++++++++++++++++@@",
"o+@@@@@@@@@@@@@@@@@@@@@@@@@@@@@@@@@@@+++++++@@+@@@@@@@@@@@@@@@@@",
"o@@@@@@@@@@@@@@@@@@@@@@@@@@@@@@@@@@@@@@@@@@@@@@@@@@@@@@@@@@@@@@@",
"o@@@@@@@@@@@@@@@@@@@@@@@@@@@@@@@@@@@@@@@@@@@@@@@@@@@@@@@@@@@@@@@",
"+@@@@@@@@@@@@@@@@@@@@@@@@@@@@@@@@@@@@@@@@@@@@@@@@@@@@@@@@@@@@@@@",
"+++@@@@@@@@@@@@@@@@@@@@@@@@@@@@@@@@@@@@@@@@@@@@@@@@@@@@@@@@@@@@@",
"+++++++++++@@@@@++@@@@@@@@@@@@@@@@@@@@@@@@@@@@@@@@@@@@@@@@@@@@@@",
"+++@@@@@@@@@@@@@@@@@@@@@@@@@@@@@@@@@@@@@@@@@@@@@@@@@@@@@@@@@@@@@",
"++@@@@@@@@@@@@@@@@@@@@@@@@@@@@@@@@@@@@@@@@@@@@@@@@@@@@@@@@@@@@@@",
"o+@@@@@@@@@@@@@@@@@@@@@@@@@@@@@@@@@@@@@@@@@@@@@@@@@@@@@@@@@@@@@@",
"o+@@@@@@@@@@@@@@@@@@@@@@@@@@@@@@@@@@@@@@@@@@@@@@@@@@@@@@@@@@@@@@",
"o+@@@@@@@@@@@@@@@@@@@@@@@@@@@@@@@@@@@@@@@@@@@@@@@@@@@@@@@@@@@@@@",
"oo+@@@@@@@@@@@@@@@@@@@@@@@@@@@@@@@@@@@@@@@@@@@@@@@@@@@@@@@@@@@@@",
"Xo+++++++++++++oo++++++ooo++o+++++++++++++++++++++++++++++++++++",
".XXXooooooooooooooooooooooo+o+++++++++@@@@++@+@++++@@+++++++++++",
"Xoo+@@@@@@@@@@@@@@@@@@@@@@@@+@@@@@@@@@@@@@@@@@@@@@@@@@@@@@@@@@@@",
"oo+@@@@@@@@@@@@@@@@@@@@@@@@@+@@@@@@@@@@@@@@@@@@@@@@@@@@@@@@@@@@@",
"oo+@@@@@@@@@@@@@@@@@@@@@@@@@@@@@@@@@@@@@@@@@@@@@@@@@@@@@@@@@@@@@",
"oo+@@@@@@@@@@@@@@@@@@@@@@@@@@@@@@@@@@@@@@@@@@@@@@@@@@@@@@@@@@@@@",
"o+++++++++++++@@@@@@@@@@@@@@@@@@@@@@@@@@@@@@@@@@@@@@@@@@@@@@@@@@",
"o+@@@@@@@@@@@@@@@@@@@@@@@@@@@@@@@@@@@@@@@@@@@@@@@@@@@@@@@@@@@@@@",
"o+@@@@@@@@@@@@@@@@@@@@@@@@@@+@@@@@@@@@@@@@@@@@@@@@@@@@@@@@@@@@@@",
"o+@@@@@@@@@@@@@@@@@@@@@@@@@@+@@@@@@@@@@@@@@@@@@@@@@@@@@@@@@@@@@@",
"o+@@@@@@@@@@@@@@@@@@@@@@@@@@+@@@@@@@@@@@@@@@@@@@@@@@@@@@@@@@@@@@",
"o++@@@@@@@@@@@@@@@@@@@@@@@@++@@@@@@@@@@@@@@@@@@@@@@@@@@@@@@@@@@@",
"o++++@++@+@@@@@@@@@@@@@@@@++++++++@@@@@@@@@@@@@@@@@@@@@@@@@@@@@@",
"oo+@@@@@@@@@@@@@@@@@@@@@@@@@++@@@@@@@@@@@@@@@@@@@@@@@@@@@@@@@@@@",
"oo+@@@@@@@@@@@@@@@@@@@@@@@@@+@@@@@@@@@@@@@@@@@@@@@@@@@@@@@@@@@@@",
"oo+@@@@@@@@@@@@@@@@@@@@@@@@@o@      @@@@@@@@@@@@@@@@@@@@@@@@@@@@",
"ooo+@@@@@@@@@@@@@@@@@@@@@@@            @@@@@@@@@@@@@@@@@@@@@@@@@",
"Xooooooo+++++++o+++ooooooo    #$ $$#    ++++@@@@@@@@@@+++++ooooo",
"...XXXXXooooooooooooooooo  #$$#   #$$$#  ooooooooooooooooooooooo",
"Xooo+++@@@@@@@@@@@@@@@@@  #$$$ #$$$$$$$#  @@@@@@@@@@@@@@@@@@@@@@",
"ooo+@@@@@@@@@@@@@@@@@@@@  #$$$#    $$$$#  @@@@@@@@@@@@@@@@@@@@@@",
"ooo+@@@@@@@@@@@@@@@@@@@@   #$$$# #$$$$#   @@@@@@@@@@@@@@@@@@@@@@",
"ooo++@@@@@@@@@@@@@@@@@@@  O   ######   O  @@@@++++@@@@@@@@@@@@@@",
"oo+++++++@++@@@@@@@@@@@@@  O##      ##O  ++@++++++++++++++++++++",
"oo++@@@@@@@@@@@@@@@@@@@@@@    O####O    @@@@@@@@@@@@@@@@@+oooooo",
"oo+@@@@@@@@@@@@@@@@@@@@@@@@            @@@@@@@@@@@@@+ooooooooo++",
"oo+@@@@@@@@@@@@@@@@@@@@@@@@@@@      @@@@@@@@@@@@+oooooo+++++++++",
"oo+@@@@@@@@@@@@@@@@@@@@@@@@@@@@@@@@@@@@@@@@@++ooooo+++++++++++++",
"oo+@@@@@@@@@@@@@@@@@@@@@@@@@@++++++++++++++++ooo++++++++++++++++",
"oo+@@@@@@@@@@@@@@@@@@@@@@@@@@@@@@@@@@@@@++++oo++++++++++++++++++",
"ooo+@@@@@@@@@@@@@@@@@@@@@@@@@@@@@@@@@@@@@@@oo+++++++++++++++++++",
"oooo+++@@@@@@@@@@@@@@@@@@@@@@@@@@@@@@@@@+++oo+++++++++++++++++++",
"Xoooooooooooooooooooooooooooooooooooooooooooooooooooooooo+++++++",
"..XXXooooooooooooooooooooooooooooooooooooooooooooooooooooooooooo",
"Xooo@@@@@@@@@@@@@@@@@@@@@@@@@@@o@@@@@@@@@@@@@@@@@@@@++oooooooooo",
"oooo@@@@@@@@@@@@@@@@@@@@@@@@@@@o@@@@@@@@@@@@@@@@@@@@@@@@@@@@@@@@",
"ooo+@@@@@@@@@@@@@@@@@@@@@@@@@@@@@@@@@@@@@@@@@@@@@@@@@@@@@@@@@@@@",
"ooo+@@@@@@@@@@@@@@@@@@@@@@@@@@+@@@@@@@@@@@@@@@@@@@@@@@@@@@@@@@@@",
"ooo+@@@@@@@@@@@@@@@@@@@@@@@@@@++@+++@@++++++++++++@@+@@@@+@@@@@@",
"ooo@@@@@@@@@@@@@@@@@@@@@@@@@@@+@@@@@@@@@@@@@@@@@@@@@@@@@@@@@@@@@",
"oo+@@@@@@@@@@@@@@@@@@@@@@@@@@@@@@@@@@@@@@@@@@@@@@@@@@@@@@@@@@@@@",
"oo++@@@@@@@@@@@@@@@@@@@@@@@@@@+@@@@@@@@@@@@@@@@@@@@@@@@@@@@@@@@@",
"oo+++++++++++++@@@@@@@@@@@@@@@@+@@@@@@@@@@@@@@@@@@@@@@@@@@@@@@@@",
"oo+@@@@@@@@@@@@@@@@@@@@@@@@@@@@++++++++++@@++++@@@@@@@@@@@@@@@@@",
"oo+@@@@@@@@@@@@@@@@@@@@@@@@@@@++++@@@++@@@@@@@@@@@@@@@@@@@@@@@@@",
"ooo@@@@@@@@@@@@@@@@@@@@@@@@@@++@@@@@@@@@@@@@@@@@@@@@@@@@@@@@@@@@",
"ooo@@@@@@@@@@@@@@@@@@@@@@@@@@o@@@@@@@@@@@@@@@@@@@@@@@@@@@@@@@@@@",
"ooo+@@@@@@@@@@@@@@@@@@@@@@@@+o@@@@@@@@@@@@@@@@@@@@@@@@@@@@@@@@@@",
"Xooo+@@@@@@@@@@@@@@@@@@@@@@++o++@@@@@@@@@@@@@@@@@@@@@@@@@@@@@@@@",
"..Xooooooooooooooooooooooooooooooooooooo+@@@+ooooo+@@@@@+ooo+++@",
"....XXXooooooooooooooooo+@@@++oo+@+ooooooooooooooooooooooooooooo"
};
