/* XPM */
static char *result[] = {
/* columns rows colors chars-per-pixel */
"64 64 10 1 ",
"  c #020000",
". c #201506",
"X c #3F2A18",
"o c #543923",
"O c #64432C",
"+ c #744D34",
"@ c #BA7472",
"# c #D09D9C",
"$ c #E4C7C6",
"% c white",
/* pixels */
"oOOOOOOOOOOOOO++++++++++++++++++++++++++++OOOOOOOOOOOOOOOOOOOO++",
"oO+++++++++++++++++++++++++++++++++++OOOOOOO++O+++++++++++++++++",
"o+++++++++++++++++++++++++++++++++++++++++++++++++++++++++++++++",
"o+++++++++++++++++++++++++++++++++++++++++++++++++++++++++++++++",
"O+++++++++++++++++++++++++++++++++++++++++++++++++++++++++++++++",
"OOO+++++++++++++++++++++++++++++++++++++++++++++++++++++++++++++",
"OOOOOOOOOOO+++++OO++++++++++++++++++++++++++++++++++++++++++++++",
"OOO+++++++++++++++++++++++++++++++++++++++++++++++++++++++++++++",
"OO++++++++++++++++++++++++++++++++++++++++++++++++++++++++++++++",
"oO++++++++++++++++++++++++++++++++++++++++++++++++++++++++++++++",
"oO++++++++++++++++++++++++++++++++++++++++++++++++++++++++++++++",
"oO++++++++++++++++++++++++++++++++++++++++++++++++++++++++++++++",
"ooO+++++++++++++++++++++++++++++++++++++++++++++++++++++++++++++",
"XoOOOOOOOOOOOOOooOOOOOOoooOOoOOOOOOOOOOOOOOOOOOOOOOOOOOOOOOOOOOO",
".XXXoooooooooooooooooooooooOoOOOOOOOOO++++OO+O+OOOO++OOOOOOOOOOO",
"XooO++++++++++++++++++++++++O+++++++++++++++++++++++++++++++++++",
"ooO+++++++++++++++++++++++++O+++++++++++++++++++++++++++++++++++",
"ooO++++++++++++++++++++++++++        +++++++++++++++++++++++++++",
"ooO++++++++++++++++++++++++            +++++++++++++++++++++++++",
"oOOOOOOOOOOOOO+++++++++++    ########    +++++++++++++++++++++++",
"oO++++++++++++++++++++++   #$$$$$$$$$$#   ++++++++++++++++++++++",
"oO+++++++++++++++++++++  #$$$$$$$$$$$$$$#  +++++++++++++++++++++",
"oO++++++++++++++++++++  #$$$$$$$$$$$$$$$$#  ++++++++++++++++++++",
"oO+++++++++++++++++++  #$$$$$$$$$$$$$$$$$$#  +++++++++++++++++++",
"oOO++++++++++++++++++  $$$$$$$$$$$$$$$$$$$$  +++++++++++++++++++",
"oOOOO+OO+O++++++++++  #$$$$$$$$$$$$$$$$$$$$#  ++++++++++++++++++",
"ooO+++++++++++++++++  $$$$$$$$$$$$$$$$$$$$$$  ++++++++++++++++++",
"ooO++++++++++++++++  #$$$$$$$$$$$$$$$$$$$$$$#  +++++++++++++++++",
"ooO++++++++++++++++  #$#    #$$$$$$$$#    #$#  +++++++++++++++++",
"oooO+++++++++++++++  #$ %%   $$$$$$$$ %%   $#  +++++++++++++++++",
"XoooooooOOOOOOOoOOO  ## %%   $$$$$$$$ %%   ##  +++++++OOOOOooooo",
"...XXXXXooooooooooo  @#      $      $      #@  ooooooooooooooooo",
"XoooOOO++++++++++++   #@####@$ %%%% $@####@#   +++++++++++++++++",
"oooO+++++++++++++++   @#$$$$$$      $$$$$$#@   +++++++++++++++++",
"oooO+++++++++++++++    #$$$$$$#    #$$$$$$#    +++++++++++++++++",
"oooOO+++++++++++++++   @#$$$$$$$$$$$$$$$$#@   OOOO++++++++++++++",
"ooOOOOOOO+OO++++++++    @#$$$$$$$$$$$$$$#@    OOOOOOOOOOOOOOOOOO",
"ooOO++++++++++++++++  #  @#$$$$$$$$$$$$#@  #  +++++++++++Ooooooo",
"ooO++++++++++++++++++  @   @#$$$$$$$$#@   @  +++++++OoooooooooOO",
"ooO+++++++++++++++++++  @    @######@    @  ++++OooooooOOOOOOOOO",
"ooO++++++++++++++++++++  @#            #@  +OOoooooOOOOOOOOOOOOO",
"ooO+++++++++++++++++++++   @#        #@   OOOoooOOOOOOOOOOOOOOOO",
"ooO++++++++++++++++++++++   #$$$$$$$$#   OOOooOOOOOOOOOOOOOOOOOO",
"oooO++++++++++++++++++++++  #$$$##$$$#  +++ooOOOOOOOOOOOOOOOOOOO",
"ooooOOO+++++++++++++++++++  $$$#  #$$$  OOOooOOOOOOOOOOOOOOOOOOO",
"Xoooooooooooooooooooooooo  $$$#    #$$$  ooooooooooooooooOOOOOOO",
"..XXXoooooooooooooooooooo  $$$  oo  $$$  ooooooooooooooooooooooo",
"Xooo+++++++++++++++++++++  #$$  ++  $$#  +++++++++++OOoooooooooo",
"oooo++++++++++++++++++++++     o+++     ++++++++++++++++++++++++",
"oooO+++++++++++++++++++++++   ++++++   +++++++++++++++++++++++++",
"oooO++++++++++++++++++++++++++O+++++++++++++++++++++++++++++++++",
"oooO++++++++++++++++++++++++++OO+OOO++OOOOOOOOOOOO++O++++O++++++",
"ooo+++++++++++++++++++++++++++O+++++++++++++++++++++++++++++++++",
"ooO+++++++++++++++++++++++++++++++++++++++++++++++++++++++++++++",
"ooOO++++++++++++++++++++++++++O+++++++++++++++++++++++++++++++++",
"ooOOOOOOOOOOOOO++++++++++++++++O++++++++++++++++++++++++++++++++",
"ooO++++++++++++++++++++++++++++OOOOOOOOOO++OOOO+++++++++++++++++",
"ooO+++++++++++++++++++++++++++OOOO+++OO+++++++++++++++++++++++++",
"ooo++++++++++++++++++++++++++OO+++++++++++++++++++++++++++++++++",
"ooo++++++++++++++++++++++++++o++++++++++++++++++++++++++++++++++",
"oooO++++++++++++++++++++++++Oo++++++++++++++++++++++++++++++++++",
"XoooO++++++++++++++++++++++OOoOO++++++++++++++++++++++++++++++++",
"..XoooooooooooooooooooooooooooooooooooooO+++OoooooO+++++OoooOOO+",
"....XXXoooooooooooooooooO+++OOooO+Oooooooooooooooooooooooooooooo"
};
