/* XPM */
static char *result[] = {
/* columns rows colors chars-per-pixel */
"64 64 19 1 ",
"  c #1C0C04",
". c #201506",
"X c #3B2818",
"o c #3F2A18",
"O c #462F1F",
"+ c #513624",
"@ c #543923",
"# c #64432C",
"$ c #744D34",
"% c gray26",
"& c #5E4E4E",
"* c #585858",
"= c #646464",
"- c #826C6C",
"; c #8D8D8D",
": c #9F8C8C",
"> c #AFAFAF",
", c #B9B9B9",
"< c white",
/* pixels */
"@#############$$$$$$$$$$$$$$$$$$$$$$$$$$$$####################$$",
"@#$$$$$$$$$$$$$$$$$$$$$$$$$$$$$$$$$$$#######$$#$$$$$$$$$$$$$$$$$",
"@$$$$$$$$$$$$$$$$$$$$$$$$$$$$$$$$$$$$$$$$$$$$$$$$$$$$$$$$$$$$$$$",
"@$$$$$$$$$$$$$$$$$$$$$$$$$$$$$$$$$$$$$$$$$$$$$$$$$$$$$$$$$$$$$$$",
"#$$$$$$$$$$$$$$$$$$$$$$$$$$$$$$$$$$$$$$$$$$$$$$$$$$$$$$$$$$$$$$$",
"###$$$$$$$$$$$$$$$$$$$$$$$$$$$$$$$$$$$$$$$$$$$$$$$$$$$$$$$$$$$$$",
"###########$$$$$##$$$$$$$$$$$$$$$$$$$$$$$$$$$$$$$$$$$$$$$$$$$$$$",
"###$$$$$$$$$$$$$$$$$$$$$$$$$$$$$$$$$$$$$$$$$$$$$$$$$$$$$$$$$$$$$",
"##$$$$$$$$$$$$$$$$$$$$$$$$$$$$$$$$$$$$$$$$$$$$$$$$$$$$$$$$$$$$$$",
"@#$$$$$$$$$$$$$$$$$$$$$$$$$$$$<<<<<$$$$$$$$$$$$$$$$$$$$$$$$$$$$$",
"@#$$$$$$$$$$$$$$$$$$$$$$$$$$$<%%%%%<$$$$$$$$$$$$$$$$$$$$$$$$$$$$",
"@#$$$$$$$$$$$$$$$$$$$$$$$$$$<%=====%<$$$$$$$$$$$$$$$$$$$$$$$$$$$",
"@@#$$$$$$$$$$$$$$$$$$$$$$$$$<%=====%<$$$$$$$$$$$$$$$$$$$$$$$$$$$",
"o@#############@@<<<###@@@##<%;,,,;%<########<<<################",
".ooo@@@@@@@@@@@<<%%%<<@@@@@#<%,,,,,%<<$$$$#<<%%%<<#$$###########",
"o@@#$$$$$$$$$<<%%===%%<$<<<<<%,,,,,%<<<<<$<%%===%%<<$$$$$$$$$$$$",
"@@#$$$$$$$$<<%%=======%<%%%%%%,,,,,%%%%%%<%=======%%<<$$$$$$$$$$",
"@@#$$$$$$$<%%====,,;===%=*===%,,,,,%==*==%===;,,====%%<$$$$$$$$$",
"@@#$$$$$$<%====,,;;,,;=%*===*%,,,,,%==*==%=;,,;;,,====%<$$$$$$$$",
"@########<%==,,;;%%,,,;%;,,,,,>>,,,,,>,,;%;,,,%%;;,,==%<$$$$$$$$",
"@#$$$$$$$<%,,;;%%,,,;;,%,,,,,,,,>>,,>,,,,%,;;,,,%%;;,,%<$$$$$$$$",
"@#$$$$$$+ %;;%%,,,;=%=;%,,,,,,,,,,>>,,,,,%;=%=;,,,%%;;% $$$$$$$$",
"@#$$$$$$ & %%,,,;=%%==%%;,,,,,,,,,,,>,,,;%%==%%=;,,,%% & $$$$$$$",
"@#$$$$$$ &&  %;=%% ==   %%%%%%,,,,,%%%%%%   == %%=;%  && $$$$$$$",
"@##$$$$$ --&& %%  &  &&&     %,,,,,%     &&&  &  %% &&-- $$$$$$$",
"@####$## &---&  &&-&&---&&&&&%>,,,,%&&&&&---&&-&&  &---& $$$$$$$",
"@@#$$$$$+ :::-&&--:--:::----&%,>,,,%&---:::------&&-::- +$$$$$$$",
"@@#$$$$$$ :-:::::::::-------&%,,>,,%&------::::-:::::-- $$$$$$$$",
"@@#$$$$$$ &&&&&&&&&&&&&&&&&&&%,,,>>%&&&&&&&&&&&&&&&&&&& $$$$$$$$",
"@@@#$$$$$+                   %,,,,,%                   +$$$$$$$$",
"o@@@@@@@##OO &&&&&& XXXXXXXXX%,,,,,%XXOOOOOO+ &&&&&& +O####@@@@@",
"...ooooo@@@@ ----&&& @@@@@@@@%,,,,,%@@@@@@@@ &&&---- @@@@@@@@@@@",
"o@@@###$$$$$ -:::-&& $$$$$$$$%;,,,;%$$$$$$$$ &&-:::: $$$$$$$$$$$",
"@@@#$$$$$$$$+ ::::&& $$$$$$$$$%%%%%$$$$$$$$$ &&:::-- $$$$$$$$$$$",
"@@@#$$$$$$$$$ -:::&& +$$$$$$$$$$$$$$$$$$$$$+ &&:::: +$$$$$$$$$$$",
"@@@##$$$$$$$$+ :::-&& $$$$$$$$$$$$$$$$$$$$$ &&-:::- $$$$$$$$$$$$",
"@@#######$##$$ -:::&& $$$$$$$$$$$$$$$$$$$## &&:::: O############",
"@@##$$$$$$$$$$+ :-:&& +$$$$$$$$$$$$$$$$$$$+ &&:::- $$$$$$#@@@@@@",
"@@#$$$$$$$$$$$$ -::-&& $$$$$$$$$$$$$$$$$$$ &&-::: +$#@@@@@@@@@##",
"@@#$$$$$$$$$$$$+ :::&& +$$$$$$$$$$$$$$$$$+ &&:::- @@@@@#########",
"@@#$$$$$$$$$$$$$ -::-&& $$$$$$$$$$$$$$$$$ &&-::: X@#############",
"@@#$$$$$$$$$$$$$+ :::&& $$$$$############ &&:::- ###############",
"@@#$$$$$$$$$$$$$$ -::&& +$$$$$$$$$$$$$$$O &&::: O###############",
"@@@#$$$$$$$$$$$$$+ ::-&& $$$$$$$$$$$$$$$ &&-::- ################",
"@@@@###$$$$$$$$$$$ -::&& $$$$$$$$$$$$$$$ &&:-: O################",
"o@@@@@@@@@@@@@@@@@X ::&& X@@@@@@@@@@@@@X &&::- @@@@@@@@@@#######",
"..ooo@@@@@@@@@@@@@@ -:-&& @@@@@@@@@@@@@ &&-:: X@@@@@@@@@@@@@@@@@",
"o@@@$$$$$$$$$$$$$$$+ ::&& $$$$$@$$$$$$$ &&::- $$$$$$##@@@@@@@@@@",
"@@@@$$$$$$$$$$$$$$$$ -:&& +$$$$@$$$$$$+ &&:: +$$$$$$$$$$$$$$$$$$",
"@@@#$$$$$$$$$$$$$$$$+ :-&& $$$$$$$$$$$ &&-:- $$$$$$$$$$$$$$$$$$$",
"@@@#$$$$$$$$$$$$$$$$$ --&& +$$#$$$$$$+ &&-- +$$$$$$$$$$$$$$$$$$$",
"@@@#$$$$$$$$$$$$$$$$$                       ######$$#$$$$#$$$$$$",
"@@@$$$$$$$$$$$$$$$$$$+ &&---------------&& +$$$$$$$$$$$$$$$$$$$$",
"@@#$$$$$$$$$$$$$$$$$$$                     $$$$$$$$$$$$$$$$$$$$$",
"@@##$$$$$$$$$$$$$$$$$$$$$$$$$$#$$$$$$$$$$$$$$$$$$$$$$$$$$$$$$$$$",
"@@#############$$$$$$$$$$$$$$$$#$$$$$$$$$$$$$$$$$$$$$$$$$$$$$$$$",
"@@#$$$$$$$$$$$$$$$$$$$$$$$$$$$$##########$$####$$$$$$$$$$$$$$$$$",
"@@#$$$$$$$$$$$$$$$$$$$$$$$$$$$####$$$##$$$$$$$$$$$$$$$$$$$$$$$$$",
"@@@$$$$$$$$$$$$$$$$$$$$$$$$$$##$$$$$$$$$$$$$$$$$$$$$$$$$$$$$$$$$",
"@@@$$$$$$$$$$$$$$$$$$$$$$$$$$@$$$$$$$$$$$$$$$$$$$$$$$$$$$$$$$$$$",
"@@@#$$$$$$$$$$$$$$$$$$$$$$$$#@$$$$$$$$$$$$$$$$$$$$$$$$$$$$$$$$$$",
"o@@@#$$$$$$$$$$$$$$$$$$$$$$##@##$$$$$$$$$$$$$$$$$$$$$$$$$$$$$$$$",
"..o@@@@@@@@@@@@@@@@@@@@@@@@@@@@@@@@@@@@@#$$$#@@@@@#$$$$$#@@@###$",
"....ooo@@@@@@@@@@@@@@@@@#$$$##@@#$#@@@@@@@@@@@@@@@@@@@@@@@@@@@@@"
};
