/* XPM */
static char *result[] = {
/* columns rows colors chars-per-pixel */
"64 64 40 1 ",
"  c #030000",
". c #0C0303",
"X c #120606",
"o c #140907",
"O c #160808",
"+ c #1B0B0A",
"@ c #1D100B",
"# c #230E0E",
"$ c #201506",
"% c #21120D",
"& c #28180F",
"* c #271010",
"= c #2A1111",
"- c #2D1C13",
"; c #331616",
": c #341F16",
"> c #371818",
", c #3C1A1A",
"< c #352116",
"1 c #3F2A18",
"2 c #431E1E",
"3 c #442D1D",
"4 c #49311F",
"5 c #472020",
"6 c #4B2222",
"7 c #532626",
"8 c #572828",
"9 c #5C2A2A",
"0 c #4B3020",
"q c #523624",
"w c #543923",
"e c #5E3D29",
"r c #632E2E",
"t c #673030",
"y c #6B3131",
"u c #713434",
"i c #783838",
"p c #64432C",
"a c #6A462F",
"s c #744D34",
/* pixels */
"wpppppppppppppssssssssssssssssssssssssssssppppppppppppppppppppss",
"wpssssssssssssssssssssssssssssssssssspppppppsspsssssssssssssssss",
"wsssssssssssssssssssssssssssssssssssssssssssssssssssssssssssssss",
"wsssssssssssssssssssssssssssssssssssssssssssssssssssssssssssssss",
"psssssssssssssssssssssssssssssssssssssssssssssssssssssssssssssss",
"pppsssssssssssssssssssssssssssssssssssssssssssssssssssssssssssss",
"pppppppppppsssssepssssssssssssssssssssssssssssssssssssssssssssss",
"pppssssssssssspeeeeeeeeeeeeeeeeeeweeeeeeeeeeeeeeeeeeepssssssssss",
"ppsssssssssssa<+#+++@@@@@@@@@o++@@@@++%%%$+@+@@@@%%@+:asssssssss",
"wpsssssssspep0o.XO+##++##++#####@+++++X.XX+++#+++X...X4pepssssss",
"wpsssssssa:+@O .#;2788888888888888667,O.O=566665;#X...+#+:asssss",
"wpssssssa0o.+#+%;38yyuuuuyuuuuuyuyttt7+X*,9trrt96;X.XXOXXo4assss",
"wwpssssa<X O5996,29yyyyyyyyyyyrryyyyt7=*5799tyyt92+.+#-#..O<asss",
"1wppppe1X.O-riir,,9uyyyyyyyyytr8yyyt72=;7r9ryyyyr6+.#=>;+X.X3wpp",
"@111w4&X O5ryuu9,,9uyyr99ryyyyttyyu9=+%,7rttyyyyr6+.#===;=X.O-wp",
"1wwpseOXO;riyyy92,9yyy9889tyyyyyyyu7o.;59rtyttyyr5+.#===;=X..+es",
"wwpsse@+6tyyyyyr,,ryytr87rryyyyyuuy6XX2rttyt8rtyr6+.#***=*X..$es",
"wwpsse@+6rtyyyyr,,9uytr9rrtyyyyyr872##28ruytrrtyr6+.#****#OX.#es",
"wwpsse@o+;7yyyu92,9yyyttttyyyyur,==;22##ryyt8rryr5+.#*****;=X@es",
"wppppq@. X,7ryu9>,ryytyyyyyyrrr6;=#2r7#X7uyt8ryyr5+.#=***=;*O#es",
"wpssse%. .X=7yu9;;9yyyyyyyur2>;;278ry8==7tyyyyyyt6+.+**==#+XX%es",
"wpssse%... +5ty9=;8uyyytytr72;=>8yyuu8;=27ryyyyrr5+.#**##+...%es",
"wpssse%... +5ty9;;8uyyyyur22688rtyyyur2#X*ryyyrrr6+.#**#+....%es",
"wpsssp%... +6tu9;;9uytyyy8228tyuyyyyyr6;X#8yyr8rr6+.#*=#.....%es",
"wppsse%... O7uu9>,9yyyytr99rttyyyyytyyt7#=8uut88r5+.#==#.....%es",
"wppppe%...O-9uy9,,ruytytr9yyyyyytyyyyyyr;;8uyrrrr6+.#=*#O....%es",
"wwpsse%. O2ryyr7,,9yyyyttttyyyyyyyyyyyy7=;8yrrtyr2+.##***+...%es",
"wwpsse@XO;ruyt97,29yyyyyyyyyyytyyyttrr72;,ry98ttt6O.#***=#+.X%es",
"wwpsse@+28yyr9r7,,7rtyyyyyyyyttyyrr82>=;28ytr99rr7O.+=**#=*%X%es",
"wwwpse$o29yyr997>>6rtytyytytyyyyyrr22>=28tyy9989r2+.#=**==#+X@es",
"1wwww3oXO=ruytr6;;6ryyyyytyyyyyyyr227rr8tyyt9899r6+.+=*==#+..+3w",
"$$$11<o. O5rtyr6==7rtyyyyyyyytyyyr22ruuyyytrr999r5+.#==**+...+3w",
"3wwwpw@...O=9ur6;=6ryytyyyytytyyyr77ryyyyyrr8rr8r6#X=;;#OX...#es",
"wwwpse%..  +7ut7=;6rttyytyrryyyyytrryyyyyt88r88rr2O.=;=#.....$es",
"wwwpse%... O7uy9;=6rrrtyrrrrtyytrrrtyyyyr8r888r8r6OX#=*#X....%es",
"wwwppe%...X;9uu7;;7r88trr78rryytrrrtyrytr8888r8rr6O.#**#X. ..*es",
"wwpppq@. X,8tyt7==7r8r8r88r8rrtyttyyrr7rr888r88rr7OX#*=#X ...@wp",
"wwppse%.X=7ytrr7;=28r8r8r8rr8rryyyyrrrr88rrrr8rr82O.#*=#O....+3w",
"wwpsse@+,799r997;*,2rrrrrrr8rrttrrrrrrrrrrrrrrr82;O.#****+...+wp",
"wwpsse@+7y998rr7=#*>2726666227226665662266272272>#XX#***=*Oo.@qp",
"wwpsse++7yr99ru9#..XOO++O+OO+OO+#OOOOO#O+O++OO#OO...#=*****#X@qp",
"wwpsse@+,7899995#.XXXXX..XXXX...X.XXXX.....X......XO+#****#+X+qp",
"wwpsse@.X=6rr7=+#;===;==;=;=##+###====#####+######*+XO#==#O..@qp",
"wwwpsp%. +697,+X;>>>;;>>>;;;=**===;>;;==**=*=#==**=#XX+**#X..+qp",
"wwwwpq@..+77=O#=>;==========***=#=====*****=#==#**=*#+XO##X..$qp",
"1wwww3+. +77OX=2>;=#==**********#=#=#===***********==#.X#%X .@qp",
"@$1133@  +77OX;>==*=;;=*********==##=#=#*****=#=****=#..**X..@3w",
"3wwwse@XO=22#O=;=##*;;=**=******#=====#=******=#****=#OX#+OX.+3w",
"wwwwse@+,5*+=;=*****==************====****************#+OO+#X%es",
"wwwpse@+98X.=,=#**************=***##+#***************==#..#*X+es",
"wwwpse+#87+.=>=***=*=***********=*O.XO*=***************#..**X%es",
"wwwpse@+22+o;;=*=#######*=****###+X ..+#**********=***=#OO+#X%es",
"wwwsse%X+#=;==**=*OXXXXo#=**=*XXX......O#=******==******#+X..%es",
"wwpsse$. .;>=#**#+X . ..##**#+X ........##******####***==#X..#es",
"wwppse@..X*==*=#X........X#*O...........XX#=**=*+..O****=%X..+es",
"wwpppw&o..+#**=#X........O*#XXXX.........X#===#+....+***##X.o:ps",
"wwpsssa4o..o#===*#X.....+#==*#*+........+**==*O.....XX*#+.Xo0ass",
"wwpssssa<o.X+###%+X....X######*#X......X#*###+.......X#+X.o:asss",
"wwwsssssa0o.XXXXXXX....XXXoXXXXX........XXXXXX........XX.o4assss",
"wwwssssssa:++%%%%%%%+%%%%%@%@+%@%%%%%%*%$%%%#%#%%%%%%%%@+:asssss",
"wwwpsssssspeeeeeeeeeeeeeeeeeq3eepeeeeeeeeeeeeeeeeeeeeeeeepssssss",
"1wwwpssssssssssssssssssssssppwppssssssssssssssssssssssssssssssss",
"$$1wqwwwwwwwwwwwwwwwwwwwwwwwwwwwwwwwwwwwpssspwwwwwpssssspqwwppps",
"$$$$113wwwwwwwwwwwwwwwwwpsssppwwpspwwwwwwwwwwwwwwwwwwwwwwwwwwwww"
};
